<svg xmlns="http://www.w3.org/2000/svg" aria-hidden="true" style="position:absolute;width:0;height:0;overflow:hidden"><defs><symbol id="ic-checkmark" viewBox="0 0 20 20"><path d="m0 11 2-2 5 5L18 3l2 2L7 18z"/></symbol><symbol id="ic-close" viewBox="0 0 32 32"><path fill="none" stroke="#fff" stroke-linecap="round" stroke-width="2.667" d="M26.667 26.667 5.334 5.334m21.333-.001L5.334 26.666" style="stroke:var(--color1, #fff)"/></symbol><symbol id="ic-profile" viewBox="0 0 32 32"><path d="M28 28v-2.667c0-1.84-.748-3.509-1.952-4.715s-2.875-1.952-4.715-1.952H10.666c-1.84 0-3.509.748-4.715 1.952s-1.952 2.875-1.952 4.715V28a1.333 1.333 0 0 0 2.666 0v-2.667c0-1.105.447-2.103 1.172-2.828s1.723-1.172 2.828-1.172h10.667c1.105 0 2.103.447 2.828 1.172s1.172 1.723 1.172 2.828V28a1.333 1.333 0 0 0 2.666 0zM22.667 9.333c0-1.84-.748-3.509-1.952-4.715S17.84 2.666 16 2.666s-3.509.748-4.715 1.952-1.952 2.875-1.952 4.715.748 3.509 1.952 4.715S14.16 16 16 16s3.509-.748 4.715-1.952 1.952-2.875 1.952-4.715zm-2.667 0c0 1.105-.447 2.103-1.172 2.828S17.105 13.333 16 13.333s-2.103-.447-2.828-1.172S12 10.438 12 9.333s.447-2.103 1.172-2.828S14.895 5.333 16 5.333s2.103.447 2.828 1.172S20 8.228 20 9.333z"/></symbol><symbol id="ic-discord" viewBox="0 0 32 32"><path d="M27.09 7.103a29.264 29.264 0 0 0-6.514-1.768c-.02-.003-.041 0-.06.007s-.034.021-.044.036a15.149 15.149 0 0 0-.812 1.457 27.825 27.825 0 0 0-7.316 0 13.721 13.721 0 0 0-.824-1.457c-.01-.016-.026-.028-.044-.036s-.039-.011-.06-.008c-2.25.339-4.44.934-6.514 1.768a.076.076 0 0 0-.042.032C.712 12.555-.426 17.843.132 23.064c.002.024.02.049.042.065a28.139 28.139 0 0 0 7.99 3.533c.02.006.042.005.062-.001s.038-.017.05-.033a16.477 16.477 0 0 0 1.636-2.325.08.08 0 0 0-.02-.104.096.096 0 0 0-.036-.019 19.046 19.046 0 0 1-2.496-1.041c-.022-.011-.039-.029-.046-.051s-.005-.045.006-.065a.094.094 0 0 1 .03-.033c.168-.11.336-.226.496-.341.014-.01.031-.016.049-.018s.036 0 .053.006c5.238 2.092 10.908 2.092 16.082 0a.113.113 0 0 1 .106.012c.16.115.328.231.496.341.013.009.025.02.032.034s.011.028.01.043c-.001.015-.006.029-.014.042s-.021.023-.035.031c-.798.407-1.634.754-2.498 1.039-.014.004-.026.011-.037.02s-.018.02-.023.032a.076.076 0 0 0 .006.071c.48.813 1.03 1.59 1.634 2.325.012.015.03.027.05.033s.042.006.062.001a28.075 28.075 0 0 0 8.002-3.533.086.086 0 0 0 .042-.065c.668-6.037-1.118-11.281-4.732-15.928-.004-.008-.009-.015-.016-.02s-.015-.01-.024-.013zM10.694 19.884c-1.578 0-2.876-1.266-2.876-2.82 0-1.555 1.274-2.821 2.876-2.821 1.614 0 2.9 1.277 2.876 2.821 0 1.553-1.274 2.82-2.876 2.82zm10.632 0c-1.576 0-2.876-1.266-2.876-2.82 0-1.555 1.274-2.821 2.876-2.821 1.614 0 2.902 1.277 2.876 2.821 0 1.553-1.262 2.82-2.876 2.82z"/></symbol><symbol id="ic-instagram" viewBox="0 0 32 32"><path d="M9.403.096C11.109.017 11.653 0 15.999 0s4.89.019 6.595.096 2.868.349 3.887.743a7.88 7.88 0 0 1 2.833 1.847 7.803 7.803 0 0 1 1.844 2.832c.396 1.018.666 2.182.745 3.884.078 1.709.096 2.253.096 6.598 0 4.346-.019 4.89-.096 6.596-.077 1.702-.349 2.866-.745 3.884a7.85 7.85 0 0 1-1.844 2.835 7.832 7.832 0 0 1-2.833 1.844c-1.018.396-2.182.666-3.884.745-1.708.078-2.252.096-6.598.096s-4.89-.019-6.596-.096c-1.702-.077-2.865-.349-3.884-.745a7.85 7.85 0 0 1-2.835-1.844 7.846 7.846 0 0 1-1.846-2.833C.444 25.464.173 24.3.095 22.598.016 20.889-.001 20.345-.001 16c0-4.346.019-4.89.096-6.595s.349-2.868.743-3.887a7.854 7.854 0 0 1 1.847-2.833A7.843 7.843 0 0 1 5.517.839C6.535.445 7.699.174 9.401.096h.001zm13.062 2.88c-1.687-.077-2.194-.093-6.466-.093s-4.778.016-6.465.093c-1.561.071-2.407.332-2.972.551a4.972 4.972 0 0 0-1.84 1.196 4.966 4.966 0 0 0-1.196 1.84c-.22.564-.48 1.411-.551 2.972-.077 1.687-.093 2.193-.093 6.465s.016 4.778.093 6.466c.071 1.561.332 2.407.551 2.972a4.962 4.962 0 0 0 1.196 1.84c.516.531 1.146.94 1.84 1.196.564.22 1.411.48 2.972.551 1.687.077 2.192.093 6.465.093s4.778-.016 6.466-.093c1.561-.071 2.407-.332 2.972-.551a4.972 4.972 0 0 0 1.84-1.196 4.962 4.962 0 0 0 1.196-1.84c.22-.564.48-1.411.551-2.972.077-1.687.093-2.194.093-6.466s-.016-4.778-.093-6.465c-.071-1.561-.332-2.407-.551-2.972a4.972 4.972 0 0 0-1.196-1.84 4.966 4.966 0 0 0-1.84-1.196c-.564-.22-1.411-.48-2.972-.551zm-8.509 17.956a5.337 5.337 0 0 0 5.819-8.708 5.34 5.34 0 0 0-7.73 7.359 5.335 5.335 0 0 0 1.912 1.347zm-3.772-10.747a8.232 8.232 0 0 1 5.815-2.409 8.23 8.23 0 0 1 7.598 5.077 8.21 8.21 0 0 1 0 6.294 8.225 8.225 0 1 1-13.413-8.962zm15.864-1.184a1.94 1.94 0 0 0 .467-2.145 1.933 1.933 0 0 0-1.071-1.071 1.935 1.935 0 0 0-1.514.023 1.948 1.948 0 0 0-.592 3.156 1.948 1.948 0 0 0 2.71.039z"/></symbol><symbol id="ic-twitter" viewBox="0 0 32 32"><path d="M32 6.241c-1.177.5-2.457.86-3.776 1a6.46 6.46 0 0 0 2.884-3.56 13.051 13.051 0 0 1-4.161 1.56c-.614-.646-1.356-1.161-2.18-1.512s-1.713-.531-2.612-.529c-3.634 0-6.557 2.901-6.557 6.461 0 .5.062 1 .162 1.481-5.442-.28-10.295-2.84-13.521-6.76a6.336 6.336 0 0 0-.892 3.261c0 2.242 1.158 4.219 2.923 5.381a6.688 6.688 0 0 1-2.965-.822v.08c0 3.139 2.254 5.741 5.257 6.339a7.079 7.079 0 0 1-1.727.22c-.427 0-.831-.042-1.238-.098.831 2.56 3.25 4.419 6.13 4.48a13.275 13.275 0 0 1-8.141 2.761c-.55 0-1.058-.019-1.584-.079a18.776 18.776 0 0 0 10.072 2.897c12.06 0 18.659-9.838 18.659-18.378 0-.28 0-.56-.019-.841a13.995 13.995 0 0 0 3.288-3.34z"/></symbol><symbol id="ic-location" viewBox="0 0 32 32"><path d="M16 2A11.018 11.018 0 0 0 5 13a10.892 10.892 0 0 0 2.216 6.6s.3.395.349.452L16 30l8.439-9.953c.044-.053.345-.447.345-.447l.001-.003A10.89 10.89 0 0 0 27 13 11.018 11.018 0 0 0 16 2zm0 15a4.002 4.002 0 0 1-3.923-4.78 4.006 4.006 0 0 1 3.143-3.143 3.996 3.996 0 0 1 3.607 6.75A4.002 4.002 0 0 1 16 17z"/></symbol><symbol id="ic-email" viewBox="0 0 32 32"><path d="M29.333 5.333H2.666v21.333h26.667V5.333zm-2.666 5.334L16 17.334 5.333 10.667V8L16 14.667 26.667 8v2.667z"/></symbol><symbol id="ic-phone" viewBox="0 0 32 32"><path d="M26.667 14.665h2.667c0-6.84-5.164-11.999-12.013-11.999v2.667c5.416 0 9.347 3.924 9.347 9.332z"/><path d="M17.333 10.667c2.804 0 4 1.196 4 4H24C24 10.367 21.633 8 17.333 8v2.667zm4.563 7.257a1.332 1.332 0 0 0-1.855.058l-3.191 3.281c-.768-.147-2.312-.628-3.901-2.213-1.589-1.591-2.071-3.139-2.213-3.901l3.279-3.192a1.333 1.333 0 0 0 .057-1.855L9.145 4.685c-.233-.257-.557-.413-.904-.434s-.687.093-.951.318L4.397 7.05a1.332 1.332 0 0 0-.387.865c-.02.333-.401 8.229 5.721 14.355 5.341 5.34 12.032 5.731 13.875 5.731.269 0 .435-.008.479-.011.326-.018.634-.156.864-.388l2.48-2.895a1.334 1.334 0 0 0-.115-1.855l-5.419-4.928z"/></symbol><symbol id="ic-menu" viewBox="0 0 32 32"><path d="M28 24H17.333a1.333 1.333 0 0 1 0-2.666H28v2.667zm0-6.667H5.333a1.333 1.333 0 0 1 0-2.666H28v2.667zm0-6.666H5.333a1.333 1.333 0 0 1 0-2.666H28v2.667z"/></symbol><symbol id="ic-cart" viewBox="0 0 30 32"><path d="M0 1.751A.9.9 0 0 1 .898.853h2.695a.901.901 0 0 1 .871.68l.728 2.912H26.05a.902.902 0 0 1 .691.324.893.893 0 0 1 .191.739L24.237 19.88a.902.902 0 0 1-.882.732H7.186a.902.902 0 0 1-.882-.732L3.611 5.535l-.719-2.887H.898A.9.9 0 0 1 0 1.75zm5.573 4.491 2.359 12.575H22.61l2.359-12.575H5.573zm3.41 14.372a3.593 3.593 0 1 0-.002 7.186 3.593 3.593 0 0 0 .002-7.186zm12.576 0a3.593 3.593 0 1 0-.002 7.186 3.593 3.593 0 0 0 .002-7.186zM8.983 22.41a1.796 1.796 0 1 1 0 3.592 1.796 1.796 0 0 1 0-3.592zm12.576 0a1.796 1.796 0 1 1 0 3.592 1.796 1.796 0 0 1 0-3.592z"/></symbol><symbol id="ic-thin-down" viewBox="0 0 20 20"><path d="M17.418 6.109c.272-.268.709-.268.979 0s.271.701 0 .969l-7.908 7.83a.697.697 0 0 1-.979 0l-7.908-7.83c-.27-.268-.27-.701 0-.969s.709-.268.979 0L10 13.25l7.418-7.141z"/></symbol></defs></svg>